<svg width="18" height="18" viewBox="0 0 18 18" fill="none" xmlns="http://www.w3.org/2000/svg">
<path d="M16.6017 3.035C17.2697 2.34113 17.2697 1.21428 16.6017 0.520405C15.9337 -0.173468 14.8489 -0.173468 14.181 0.520405L8.55401 6.37114L2.9217 0.525956C2.25373 -0.167917 1.16895 -0.167917 0.500977 0.525956C-0.166992 1.21983 -0.166992 2.34668 0.500977 3.04055L6.13329 8.88574L0.50632 14.7365C-0.161648 15.4304 -0.161648 16.5572 0.50632 17.2511C1.17429 17.945 2.25907 17.945 2.92704 17.2511L8.55401 11.4003L14.1863 17.2455C14.8543 17.9394 15.9391 17.9394 16.607 17.2455C17.275 16.5517 17.275 15.4248 16.607 14.7309L10.9747 8.88574L16.6017 3.035Z" fill="white"/>
</svg>
